HIERARCHY
ROOT Hips
{
	OFFSET 0.000000 0.000000 0.000000 
	CHANNELS 6 Xposition Yposition Zposition Yrotation Zrotation Xrotation 
	JOINT Lumbar
	{
		OFFSET 0.000000 0.000000 0.000000 
		CHANNELS 3 Zrotation Xrotation Yrotation
		JOINT Neck
		{
			OFFSET 0.000000 0.445665 0.000000 
			CHANNELS 3 Zrotation Xrotation Yrotation
			End Site
			{
				OFFSET 0.000000 0.227535 0.000000 
			}
		}
		JOINT RightShoulder
		{
			OFFSET 0.019635 0.377685 0.194865 
			CHANNELS 3 Zrotation Xrotation Yrotation
			JOINT RightElbow
			{
				OFFSET 0.000000 -0.243375 0.000000 
				CHANNELS 2 Zrotation Yrotation
				JOINT RightWrist
				{
					OFFSET 0.000000 -0.264825 0.000000 
					CHANNELS 2 Zrotation Xrotation
					End Site
					{
						OFFSET 0.006600 -0.176220 0.000990 
					}
				}
			}
		}
		JOINT LeftShoulder
		{
			OFFSET 0.019635 0.377685 -0.194865 
			CHANNELS 3 Zrotation Xrotation Yrotation
			JOINT LeftElbow
			{
				OFFSET 0.000000 -0.243375 0.000000 
				CHANNELS 2 Zrotation Yrotation
				JOINT LeftWrist
				{
					OFFSET 0.000000 -0.264825 0.000000 
					CHANNELS 2 Zrotation Xrotation
					End Site
					{
						OFFSET 0.006600 -0.176220 -0.000990 
					}
				}
			}
		}
	}
	JOINT RightHip
	{
		OFFSET 0.052140 -0.069960 0.075570 
		CHANNELS 3 Zrotation Xrotation Yrotation
		JOINT RightKnee
		{
			OFFSET 0.000000 -0.402270 0.000000 
			CHANNELS 1 Zrotation
			JOINT RightAnkle
			{
				OFFSET 0.000000 -0.404085 0.000000 
				CHANNELS 3 Zrotation Xrotation Yrotation
				End Site
				{
					OFFSET 0.204105 -0.089430 0.008415 
				}
			}
		}
	}
	JOINT LeftHip
	{
		OFFSET 0.052140 -0.069960 -0.075570 
		CHANNELS 3 Zrotation Xrotation Yrotation
		JOINT LeftKnee
		{
			OFFSET 0.000000 -0.402270 0.000000 
			CHANNELS 1 Zrotation
			JOINT LeftAnkle
			{
				OFFSET 0.000000 -0.404085 0.000000 
				CHANNELS 3 Zrotation Xrotation Yrotation
				End Site
				{
					OFFSET 0.204105 -0.089430 -0.008415 
				}
			}
		}
	}
}
MOTION
Frames: 34
Frame Time: 0.02
0.03308 0.9554 0.03455 184.19786 0 -3.38648 -4.6739 -2.98846 2.1401 -23.07186 14.22075 16.68287 64.44532 -33.34545 51.56708 77.77333 88.49879 16.93673 -1.64057 25.31696 13.13957 -27.23531 106.55555 -97.45396 -34.98825 4.91547 -2.68593 1.22008 -4.39878 -5.37583 -4.08909 -2.70917 -5.89595 0.18788 3.14886 1.08321 -7.36583 3.53951 1.75687 0.74751
0.03348 0.95545 0.03446 184.26444 0 -3.38055 -4.76132 -2.98898 2.04627 -23.01536 14.26197 16.61722 67.43444 -33.06449 51.35095 74.16078 86.49598 14.79168 -2.2069 25.46281 12.88746 -28.39272 106.17919 -97.59333 -34.73156 4.93375 -2.74477 1.22834 -4.46765 -5.23583 -4.15665 -2.66509 -5.90498 0.22069 3.14415 0.99159 -7.35724 3.49024 1.76907 0.77163
0.03378 0.95547 0.03443 184.49605 0 -3.36433 -4.83366 -3.00476 1.98176 -22.92007 14.26845 16.49467 70.41296 -33.38656 51.05103 69.76128 84.81661 12.82319 -2.81509 25.77714 12.6674 -29.66683 105.82812 -97.76837 -34.4772 4.95274 -2.85032 1.23566 -4.63104 -5.08539 -4.19863 -2.60775 -5.97497 0.2827 3.1241 0.70508 -7.36864 3.4317 1.79031 0.81602
0.03409 0.9555 0.03437 184.6609 0 -3.35238 -4.90937 -3.01384 1.90447 -22.84389 14.2881 16.39956 73.34677 -33.46161 50.7815 65.71961 83.0749 10.81227 -3.35407 26.01825 12.43043 -30.88391 105.46293 -97.9201 -34.21385 4.97181 -2.93608 1.24365 -4.75833 -4.94298 -4.24859 -2.55893 -6.01796 0.33136 3.11099 0.50395 -7.37112 3.37834 1.8056 0.84643
0.03452 0.95555 0.03432 184.79482 0 -3.34193 -5.00064 -3.02117 1.82141 -22.76027 14.31878 16.29558 76.52941 -33.41819 50.53986 61.61633 80.96189 8.61296 -4.10168 26.24639 12.20303 -32.11552 105.11027 -98.10009 -33.98318 4.98904 -3.01742 1.25069 -4.86109 -4.78416 -4.31499 -2.49976 -6.05765 0.38092 3.09768 0.31544 -7.37211 3.31992 1.82766 0.89418
0.03469 0.95555 0.03427 185.03037 0 -3.32603 -5.0556 -3.03618 1.75866 -22.68328 14.31854 16.19744 79.16608 -33.76821 50.22358 57.49018 79.71502 6.86475 -4.42789 26.53924 11.96382 -33.34354 104.73825 -98.23169 -33.68568 5.01047 -3.11837 1.2595 -5.03528 -4.65814 -4.34063 -2.45893 -6.11882 0.43523 3.08132 0.05468 -7.38144 3.27045 1.83829 0.91212
0.03418 0.95546 0.0342 185.51197 0 -3.29718 -5.01392 -3.06717 1.74443 -22.63594 14.23782 16.12903 80.41858 -35.03403 49.70239 53.34508 80.64367 6.24962 -3.55755 26.9927 11.6797 -34.55592 104.29106 -98.20363 -33.19876 5.04131 -3.26284 1.27269 -5.38857 -4.62387 -4.26059 -2.47214 -6.22425 0.49653 3.05984 -0.35748 -7.40667 3.24503 1.81335 0.83734
0.0334 0.95533 0.03412 186.08831 0 -3.26331 -4.93612 -3.10567 1.74995 -22.59681 14.12783 16.06884 81.09494 -36.67858 49.11336 49.24121 82.45354 6.09894 -2.26731 27.50126 11.38366 -35.75635 103.8261 -98.12851 -32.64562 5.07663 -3.42498 1.28779 -5.80879 -4.6236 -4.14017 -2.5042 -6.34919 0.56129 3.03598 -0.83525 -7.44006 3.22956 1.77702 0.73314
0.03272 0.95522 0.03404 186.61732 0 -3.23203 -4.87474 -3.14184 1.74744 -22.55245 14.03359 16.00544 81.95232 -38.16656 48.56796 45.21894 83.95665 5.7837 -1.18275 27.96962 11.09568 -36.94878 103.37895 -98.08676 -32.12536 5.11132 -3.57839 1.3025 -6.1948 -4.60899 -4.03764 -2.52752 -6.46538 0.62378 3.01352 -1.28361 -7.47137 3.21154 1.74722 0.64641
0.0321 0.95511 0.03397 187.17128 0 -3.19908 -4.81278 -3.17416 1.74283 -22.51156 13.92784 15.93783 83.15281 -39.61424 47.96396 40.73352 85.09649 5.27599 -0.03181 28.50799 10.79661 -38.20471 102.89133 -97.99717 -31.59235 5.14045 -3.73674 1.31521 -6.60103 -4.58918 -3.93608 -2.5512 -6.58346 0.69046 2.98907 -1.73852 -7.49676 3.18489 1.71208 0.54332
0.03131 0.95498 0.03387 187.69222 0 -3.16858 -4.74371 -3.21583 1.74573 -22.46776 13.83953 15.88164 83.49959 -41.2225 47.46901 37.24707 87.17151 5.27958 1.0747 28.91123 10.51873 -39.32051 102.48384 -97.9937 -31.07145 5.18178 -3.88797 1.3325 -6.97875 -4.58852 -3.82339 -2.57866 -6.70112 0.74856 2.96855 -2.19098 -7.53581 3.17869 1.68514 0.46667
0.0301 0.95483 0.03369 188.10934 0 -3.14566 -4.66326 -3.28371 1.77475 -22.39802 13.80708 15.8562 81.64933 -43.22449 47.27505 36.39593 91.83938 6.56008 2.01185 28.92884 10.29055 -40.08217 102.2982 -98.2558 -30.58962 5.25949 -4.01843 1.36226 -7.26936 -4.63163 -3.68868 -2.6129 -6.81521 0.78444 2.95819 -2.6354 -7.6136 3.22672 1.68463 0.47394
0.02874 0.95468 0.03348 188.48678 0 -3.12551 -4.57711 -3.36024 1.8087 -22.32817 13.79342 15.84226 78.95772 -45.36301 47.19661 36.5743 97.37363 8.34072 2.87998 28.80764 10.08598 -40.69714 102.19426 -98.60307 -30.12453 5.34861 -4.14021 1.39649 -7.52673 -4.69296 -3.54462 -2.65017 -6.92737 0.81095 2.95219 -3.07116 -7.70418 3.29499 1.69259 0.5082
0.02745 0.95452 0.03328 188.87512 0 -3.10437 -4.494 -3.43132 1.83344 -22.26905 13.77079 15.8223 76.63651 -47.40904 47.07688 36.35919 102.36202 9.90757 3.74263 28.74834 9.87832 -41.35897 102.05544 -98.90041 -29.65832 5.43005 -4.2637 1.4285 -7.79394 -4.7466 -3.40555 -2.68551 -7.03868 0.84017 2.94508 -3.5005 -7.78685 3.35393 1.69593 0.52737
0.02612 0.95436 0.0331 189.29852 0 -3.08183 -4.40762 -3.50915 1.88791 -22.16529 13.74832 15.80508 74.33913 -49.60115 46.90796 35.8295 108.02582 11.44017 4.77374 28.69555 9.63868 -42.10371 101.90705 -99.24321 -29.1612 5.52221 -4.39754 1.46147 -8.08686 -4.79922 -3.26142 -2.72388 -7.15842 0.87628 2.93417 -3.97685 -7.87873 3.41381 1.70194 0.55679
0.02485 0.95421 0.03287 189.63629 0 -3.06304 -4.32729 -3.5748 1.88186 -22.15414 13.73114 15.78587 71.80807 -51.51147 46.86911 36.20086 112.4743 13.1487 5.4343 28.59614 9.47057 -42.64154 101.79753 -99.51257 -28.73483 5.59466 -4.5072 1.49338 -8.3161 -4.85747 -3.12676 -2.75635 -7.25938 0.89551 2.93227 -4.35125 -7.95427 3.47633 1.7048 0.5725
0.02382 0.95407 0.03251 189.76301 0 -3.05289 -4.26439 -3.6053 1.70339 -22.40058 13.71744 15.74898 68.77116 -52.64864 47.16786 38.7939 113.37286 15.28658 5.06749 28.3959 9.50141 -42.63955 101.78172 -99.55477 -28.48676 5.60999 -4.55483 1.52189 -8.38862 -4.92978 -3.01561 -2.77211 -7.3128 0.87249 2.95406 -4.4546 -7.98226 3.54175 1.69468 0.53632
0.02286 0.95394 0.0321 189.80146 0 -3.04663 -4.20818 -3.6231 1.46466 -22.73958 13.70971 15.71127 65.54483 -53.48771 47.59259 42.25951 113.0107 17.56868 4.33202 28.15434 9.60219 -42.43533 101.80123 -99.52093 -28.31188 5.60504 -4.57781 1.54903 -8.3958 -5.00638 -2.91547 -2.78166 -7.34652 0.83242 2.98482 -4.45353 -7.99314 3.60893 1.68152 0.4868
0.02189 0.95381 0.03172 189.86957 0 -3.03927 -4.14943 -3.6463 1.25594 -23.03534 13.7038 15.68021 62.44994 -54.43699 47.95565 45.33673 113.20936 19.74029 3.77693 27.9354 9.66621 -42.32652 101.80034 -99.5246 -28.11253 5.60926 -4.61034 1.57636 -8.42534 -5.07888 -2.81369 -2.79379 -7.38666 0.79876 3.01156 -4.49467 -8.01139 3.67492 1.67128 0.44856
0.02085 0.95366 0.03132 189.98063 0 -3.02915 -4.08801 -3.67139 1.03575 -23.3372 13.67974 15.62361 59.12809 -55.5007 48.34149 48.42085 113.48965 22.12309 3.16527 27.69556 9.75182 -42.19751 101.82015 -99.51914 -27.87732 5.61408 -4.64976 1.60567 -8.48475 -5.16113 -2.69725 -2.80716 -7.43758 0.77036 3.03815 -4.5585 -8.03196 3.7434 1.655 0.38975
0.01996 0.95356 0.03094 189.98162 0 -3.02569 -4.03426 -3.68941 0.82578 -23.64691 13.69421 15.61918 56.2522 -56.25001 48.70811 51.67764 113.28958 24.0891 2.58504 27.49111 9.80906 -42.06483 101.80476 -99.51304 -27.73308 5.61268 -4.66885 1.63047 -8.46685 -5.22383 -2.61421 -2.81629 -7.46121 0.72716 3.06719 -4.5494 -8.04325 3.80669 1.6503 0.36959
0.01941 0.95358 0.0306 189.70176 0 -3.03956 -3.99645 -3.6911 0.65242 -23.96802 13.81744 15.76486 54.59904 -56.23189 48.9922 55.24879 112.06131 24.90372 2.17881 27.39597 9.76795 -41.96872 101.67813 -99.52794 -27.82996 5.59891 -4.63988 1.64311 -8.25161 -5.23128 -2.62006 -2.81626 -7.41597 0.64675 3.10032 -4.37279 -8.03499 3.8563 1.67987 0.46536
0.01902 0.95365 0.03028 189.31427 0 -3.06 -3.96687 -3.68607 0.49251 -24.29152 13.97845 15.9619 53.41654 -55.90181 49.25169 58.9473 110.39078 25.28431 1.81792 27.33826 9.69619 -41.87712 101.51546 -99.54372 -28.01439 5.57956 -4.591 1.65123 -7.96108 -5.21881 -2.65934 -2.81197 -7.3437 0.55223 3.13566 -4.1251 -8.01757 3.90029 1.7209 0.59929
0.01858 0.95369 0.02995 188.97504 0 -3.07749 -3.93587 -3.68403 0.3307 -24.60587 14.11953 16.1316 52.05802 -55.69545 49.52109 62.55078 108.92464 25.83891 1.43839 27.26315 9.64036 -41.78604 101.37241 -99.5558 -28.15348 5.56275 -4.54988 1.66139 -7.70488 -5.21553 -2.68379 -2.80889 -7.28269 0.46448 3.17028 -3.90424 -8.00299 3.94607 1.75563 0.71167
0.01805 0.95374 0.02963 188.63475 0 -3.09497 -3.89518 -3.68184 0.14935 -24.95761 14.27237 16.31834 50.52938 -55.5546 49.80069 66.3486 107.39976 26.49919 1.03718 27.18822 9.57892 -41.67707 101.21692 -99.5788 -28.31837 5.54514 -4.51316 1.67153 -7.44532 -5.21196 -2.70704 -2.80861 -7.22513 0.37441 3.20407 -3.7019 -7.99332 3.99524 1.79484 0.84121
0.01773 0.9538 0.02929 188.27318 0 -3.11397 -3.87672 -3.67851 0.01222 -25.23068 14.40972 16.48156 49.47327 -55.2076 50.05111 69.75237 105.90971 26.83156 0.69731 27.12227 9.52051 -41.60894 101.07835 -99.58075 -28.44959 5.52823 -4.46309 1.6807 -7.17648 -5.20403 -2.74067 -2.80164 -7.15444 0.2863 3.23991 -3.44666 -7.97159 4.03586 1.82751 0.94442
0.01791 0.95386 0.02891 187.8717 0 -3.13568 -3.91607 -3.67376 -0.00187 -25.2866 14.49385 16.56911 49.57669 -54.36452 50.2297 72.09803 104.61901 26.38713 0.51249 27.07305 9.48173 -41.65483 100.99488 -99.52028 -28.46399 5.51383 -4.37908 1.68791 -6.89441 -5.19053 -2.79402 -2.77667 -7.05249 0.20511 3.28145 -3.05296 -7.91793 4.05548 1.83902 0.96398
0.01828 0.95392 0.02852 187.45446 0 -3.15864 -3.97775 -3.66815 0.02759 -25.26266 14.5612 16.63088 50.14594 -53.32716 50.37855 74.02595 103.38633 25.62315 0.39038 27.03155 9.44608 -41.74225 100.9296 -99.43968 -28.44152 5.50058 -4.28279 1.69436 -6.60706 -5.17308 -2.85668 -2.74528 -6.93873 0.12685 3.32483 -2.61089 -7.85273 4.06647 1.8436 0.95607
0.01857 0.95398 0.02814 187.04964 0 -3.18095 -4.03021 -3.66293 0.03467 -25.27435 14.63706 16.70325 50.52291 -52.38187 50.53867 76.10151 102.13603 24.98938 0.24342 26.98601 9.40612 -41.81012 100.8561 -99.37141 -28.4372 5.48744 -4.19351 1.70142 -6.32637 -5.15632 -2.91559 -2.71726 -6.83145 0.04861 3.36696 -2.1978 -7.79346 4.08059 1.85157 0.96191
0.01885 0.95404 0.02774 186.61835 0 -3.20389 -4.07909 -3.65743 0.05316 -25.28899 14.71078 16.78212 50.8348 -51.40815 50.70778 78.3637 100.83049 24.4021 0.08201 26.94407 9.37706 -41.88084 100.78112 -99.28989 -28.43027 5.47144 -4.09747 1.70724 -6.02494 -5.1433 -2.9739 -2.68714 -6.71821 -0.03589 3.41093 -1.75231 -7.73085 4.09778 1.85899 0.96388
0.01919 0.95411 0.02737 186.24045 0 -3.22566 -4.14055 -3.65247 0.05799 -25.27846 14.78411 16.84063 51.38601 -50.45334 50.85105 80.13192 99.6623 23.65002 -0.03449 26.89591 9.32677 -41.95549 100.71406 -99.23093 -28.41867 5.46173 -4.01288 1.7155 -5.76654 -5.12212 -3.03494 -2.65996 -6.61529 -0.10638 3.45146 -1.36415 -7.67269 4.1067 1.86569 0.96672
0.01963 0.95417 0.02709 186.00944 0 -3.24434 -4.23177 -3.64856 0.01513 -25.21786 14.86346 16.84933 52.488 -49.58579 50.93313 80.67222 98.8411 22.50289 -0.04579 26.8291 9.21426 -42.0308 100.66413 -99.24158 -28.40431 5.46935 -3.96295 1.73084 -5.62805 -5.07663 -3.10374 -2.64209 -6.54092 -0.1396 3.4822 -1.14334 -7.62888 4.09417 1.87265 0.98001
0.02011 0.95424 0.02683 185.83411 0 -3.26167 -4.3347 -3.64539 -0.04309 -25.13461 14.94221 16.83812 53.81104 -48.74826 50.98978 80.7229 98.16188 21.20642 -0.01354 26.75547 9.08104 -42.1086 100.62182 -99.27518 -28.3859 5.48325 -3.9251 1.74865 -5.53354 -5.02366 -3.17435 -2.62747 -6.47801 -0.15862 3.50936 -0.98288 -7.59014 4.07378 1.87897 0.9947
0.02057 0.9543 0.02657 185.63665 0 -3.27928 -4.43192 -3.64237 -0.09484 -25.06185 15.01911 16.83573 55.02878 -47.90629 51.05632 80.97456 97.43187 19.99252 0.0008 26.68454 8.95919 -42.18534 100.57631 -99.29677 -28.36812 5.4942 -3.88177 1.76526 -5.41934 -4.97607 -3.24233 -2.61159 -6.41186 -0.18362 3.53805 -0.79691 -7.54962 4.05753 1.88516 1.00769
